<?xml version="1.0" standalone="no"?>
<!DOCTYPE svg PUBLIC "-//W3C//DTD SVG 20010904//EN"
 "http://www.w3.org/TR/2001/REC-SVG-20010904/DTD/svg10.dtd">
<svg version="1.0" xmlns="http://www.w3.org/2000/svg"
 width="1080.000000pt" height="1080.000000pt" viewBox="0 0 1080.000000 1080.000000"
 preserveAspectRatio="xMidYMid meet">
<metadata>
Created by potrace 1.14, written by Peter Selinger 2001-2017
</metadata>
<g transform="translate(0.000000,1080.000000) scale(0.100000,-0.100000)"
fill="#000000" stroke="none">
<path d="M1935 10789 c-484 -46 -953 -269 -1304 -620 -357 -358 -574 -821
-621 -1324 -14 -151 -14 -6739 0 -6890 47 -503 264 -966 621 -1324 358 -357
821 -574 1324 -621 151 -14 6739 -14 6890 0 503 47 966 264 1324 621 357 358
574 821 621 1324 14 151 14 6739 0 6890 -47 503 -264 966 -621 1324 -358 357
-821 574 -1324 621 -136 12 -6778 11 -6910 -1z m3910 -2685 c1046 -114 1785
-741 1990 -1688 18 -86 55 -319 55 -352 0 -2 -328 -4 -729 -4 -798 0 -741 -4
-741 57 0 52 -44 202 -84 288 -152 322 -450 479 -875 462 -245 -9 -440 -76
-603 -205 -308 -245 -459 -662 -459 -1267 0 -303 29 -519 97 -724 134 -404
383 -639 769 -723 38 -8 128 -13 245 -13 157 1 198 4 274 23 238 60 415 185
527 372 46 79 95 210 105 284 l7 48 728 -4 c400 -2 730 -6 732 -8 3 -3 -1 -48
-9 -100 -84 -604 -467 -1176 -1010 -1512 -435 -269 -972 -393 -1555 -358 -417
25 -724 102 -1054 264 -419 207 -714 478 -959 884 -202 335 -316 704 -367
1192 -16 152 -16 592 0 755 50 514 185 919 426 1280 233 349 499 589 856 774
486 252 1019 341 1634 275z"/>
</g>
</svg>
