<svg width="48.619mm" height="67.182mm" version="1.1" viewBox="0 0 48.619 67.182" xmlns="http://www.w3.org/2000/svg">
<g fill="#ebebd3">
<path d="m1.6067 43.873 6.6205-42.581c0.10057-0.64886 0.6027-1.1604 1.2469-1.2704 0.64422-0.10992 1.2862 0.20642 1.5942 0.78556l7.1181 13.36zm47.012 10.333-6.3014-39.188c-0.09519-0.56282-0.49485-1.0253-1.036-1.1988-0.54119-0.17353-1.1335-0.02915-1.5354 0.37426l-39.746 40.012 21.992 12.395c1.381 0.77491 3.063 0.77491 4.4441 0zm-17.871-34.199-5.0936-9.7454c-0.26268-0.5018-0.78042-0.81599-1.3446-0.81599s-1.0819 0.31419-1.3446 0.81599l-22.365 40.081z"/>
</g>
</svg>
